<?xml version="1.0" standalone="no"?><!DOCTYPE svg PUBLIC "-//W3C//DTD SVG 20010904//EN"
    "http://www.w3.org/TR/2001/REC-SVG-20010904/DTD/svg10.dtd">
<svg version="1.0" xmlns="http://www.w3.org/2000/svg" width="512.000000pt" height="512.000000pt" viewBox="0 0 512.000000 512.000000"
    preserveAspectRatio="xMidYMid meet">

    <g transform="translate(0.000000,512.000000) scale(0.100000,-0.100000)" fill="#000000" stroke="none">
        <path d="M2665 4913 c-304 -11 -569 -72 -852 -195 -657 -286 -1152 -863 -1336
-1558 -14 -52 -28 -111 -31 -131 -9 -51 -56 -111 -129 -165 -82 -61 -155 -92
-244 -106 l-73 -10 0 -219 c0 -121 1 -219 3 -219 180 -26 265 -64 368 -169 60
-61 80 -89 89 -123 82 -327 211 -601 414 -878 84 -115 342 -375 450 -455 358
-261 699 -404 1101 -460 990 -139 1953 352 2423 1235 123 231 213 515 253 800
16 111 16 469 1 590 -68 529 -301 1001 -682 1380 -465 465 -1089 707 -1755
683z m93 -479 c12 -4 22 -9 22 -13 0 -4 -56 -15 -125 -25 -678 -97 -1256 -509
-1549 -1104 -30 -59 -62 -128 -72 -154 -11 -27 -22 -48 -26 -48 -10 0 -28 89
-30 145 -2 58 32 143 119 295 316 554 904 904 1528 909 61 0 120 -2 133 -5z
m-13 -394 c8 -13 7 -13 -140 -38 -324 -57 -622 -210 -850 -436 -202 -201 -340
-432 -415 -693 -13 -46 -29 -83 -35 -83 -6 0 -20 6 -30 14 -18 13 -18 16 -1
102 114 594 610 1059 1211 1137 67 9 254 7 260 -3z m25 -365 c-3 -5 -51 -18
-108 -27 -529 -89 -933 -499 -1012 -1025 -16 -103 -18 -112 -30 -93 -24 38 2
268 45 395 58 174 151 320 288 452 107 104 158 140 276 198 99 49 197 81 308
100 90 15 241 15 233 0z m-1988 -610 c70 -243 267 -438 508 -504 41 -11 93
-24 115 -30 38 -8 38 -9 9 -10 -55 -2 -180 -39 -251 -75 -217 -109 -369 -319
-409 -566 l-7 -45 -13 75 c-36 208 -170 401 -354 510 -83 50 -185 87 -263 96
-32 4 -56 8 -55 10 2 2 39 10 83 19 223 46 423 199 520 399 43 88 73 189 76
251 1 25 3 23 11 -15 5 -25 19 -76 30 -115z m2212 120 c191 -66 345 -221 411
-413 35 -102 44 -246 21 -352 -39 -188 -177 -366 -346 -449 -125 -60 -191 -74
-330 -69 -181 8 -316 66 -440 189 -263 264 -256 693 17 949 99 92 183 134 348
174 11 3 70 3 130 1 87 -3 126 -9 189 -30z" />
        <path d="M2689 2697 c-50 -33 -83 -105 -74 -163 8 -59 73 -128 128 -138 83
-16 179 44 193 120 9 49 0 108 -22 138 -49 66 -159 87 -225 43z" />
    </g>
    <style>@media (prefers-color-scheme: light) { :root { filter: none; } }
        @media (prefers-color-scheme: dark) { :root { filter: none; } }
    </style>
</svg>
